<mxfile host="app.diagrams.net" modified="2024-05-28T08:24:32.414Z" agent="Mozilla/5.0 (X11; Ubuntu; Linux x86_64; rv:125.0) Gecko/20100101 Firefox/125.0" version="24.4.9" etag="CesqK8mGrBlMWWtnU0PD" type="github">
  <diagram name="Pagina-1" id="WJZg5tV51setkM5HHoCN">
    <mxGraphModel>
      <root>
        <mxCell id="0" />
        <mxCell id="1" parent="0" />
      </root>
    </mxGraphModel>
  </diagram>
</mxfile>
